# xmcd
#
# Track frame offsets:
#	150
#	18843
#	34050
#	50441
#	70761
#	98902
#	119765
#	135481
#	151020
#	166830
#	187151
#	203446
#	225006
#
# Disc length: 3216 seconds
#
# Revision: 9
# Processed by: cddbd v1.5.2PL0 Copyright (c) Steve Scherf et al.
# Submitted via: EasyCDDAExtractor 15.3.0.1
#
DISCID=9a0c8e0d
DTITLE=Ricky Martin - Musica, Alma, Sexo (Deluxe Edition) - CD 1
DYEAR=2011
DGENRE=Latin
TTITLE0=Mas
TTITLE1=Frio
TTITLE2=Lo Mejor De Mi Vida Eres Tu (Featuring Natalia Jimenez)
TTITLE3=Te Vas
TTITLE4=Tu Y Yo
TTITLE5=Cantame Tu Vida
TTITLE6=Te Busco Y Te Alcanzo
TTITLE7=Sera Sera
TTITLE8=No Te Miento
TTITLE9=Basta Ya
TTITLE10=The Best Thing About Me Is You (Featuring Joss Stone)
TTITLE11=Shine
TTITLE12=Frio (Remix) (Featuring Wisin and Yandel)
EXTD=
EXTT0=
EXTT1=
EXTT2=
EXTT3=
EXTT4=
EXTT5=
EXTT6=
EXTT7=
EXTT8=
EXTT9=
EXTT10=
EXTT11=
EXTT12=
PLAYORDER=
